<svg width="44" height="33" viewBox="0 0 44 33" fill="none" xmlns="http://www.w3.org/2000/svg">
<path fill-rule="evenodd" clip-rule="evenodd" d="M23.5209 16.7421L24.3396 4.32024L22.2493 4.18511C18.0165 3.91145 14.3612 7.08828 14.0849 11.2808L12.9934 27.8433C12.8175 30.5112 14.8586 32.8152 17.5522 32.9893C19.8513 33.1379 21.8826 31.687 22.5377 29.5999C24.6555 30.3221 27.0692 29.5222 28.2899 27.5531L43.9996 2.2112L43.9996 2.21113L42.2146 1.12562L42.2145 1.12555C38.5997 -1.07279 33.8701 0.0475568 31.6506 3.62792L23.5209 16.7421ZM10.9933 14.7997C11.2419 15.2987 11.4106 15.8162 11.5042 16.3378C11.9274 18.6544 10.8744 21.0866 8.6977 22.3313C5.92591 23.9164 2.38164 22.9757 0.781348 20.2304C0.427459 19.6233 0.19827 18.9787 0.085913 18.3259C-0.345598 15.8806 0.870717 13.3466 3.23193 12.1925C6.10206 10.7896 9.57695 11.9569 10.9933 14.7997ZM19.9596 22.4872L23.5024 16.7723L22.7271 28.536C22.7029 28.9042 22.6377 29.26 22.5362 29.5995C22.2041 29.4861 21.8792 29.3353 21.5674 29.1457C19.267 27.7467 18.5472 24.7656 19.9596 22.4872Z" fill="white"/>
</svg>
